<?xml version="1.0" standalone="no"?>
<!DOCTYPE svg PUBLIC "-//W3C//DTD SVG 20010904//EN"
 "http://www.w3.org/TR/2001/REC-SVG-20010904/DTD/svg10.dtd">
<svg version="1.0" xmlns="http://www.w3.org/2000/svg"
 width="82.000000pt" height="82.000000pt" viewBox="0 0 82.000000 82.000000"
 preserveAspectRatio="xMidYMid meet">
<metadata>
Created by potrace 1.16, written by Peter Selinger 2001-2019
</metadata>
<g transform="translate(0.000000,82.000000) scale(0.100000,-0.100000)"
fill="#000000" stroke="none">
<path d="M110 798 c0 -5 -10 -8 -22 -8 -12 0 -33 -12 -45 -27 -25 -28 -31 -49
-10 -37 7 5 7 1 -2 -10 -21 -25 -23 -612 -2 -625 11 -7 11 -9 0 -14 -10 -4 -9
-6 4 -6 10 -1 17 -9 17 -22 0 -11 5 -17 10 -14 6 4 7 11 4 17 -4 7 -2 8 4 4 7
-4 12 -14 12 -23 0 -9 3 -13 7 -10 3 4 12 2 19 -4 8 -7 14 -7 19 1 3 5 12 10
18 10 8 0 7 -3 -2 -9 -8 -5 8 -8 43 -7 31 0 56 5 56 9 0 5 6 5 12 1 15 -10
315 -12 343 -3 10 3 34 3 51 -1 20 -5 37 -3 43 3 6 6 11 7 11 2 0 -6 5 -3 11
5 8 12 12 12 16 2 7 -18 43 15 43 40 0 10 6 21 14 24 8 3 15 13 15 22 0 9 2
68 5 130 3 84 1 110 -7 105 -9 -5 -9 -3 -1 8 11 15 13 143 2 154 -3 4 -3 19 1
33 13 51 6 160 -11 173 -5 3 -9 17 -10 32 -1 15 -8 28 -15 28 -13 1 -26 4 -40
9 -5 1 -12 3 -18 5 -5 1 -14 3 -20 5 -22 7 -575 4 -575 -2z m600 -77 c6 -12
10 -127 10 -305 0 -245 -2 -287 -16 -300 -13 -14 -55 -16 -308 -16 -214 0
-295 3 -304 12 -17 17 -17 599 0 616 9 9 91 12 310 12 284 0 298 -1 308 -19z"/>
<path d="M170 535 l0 -85 50 0 c65 0 100 30 100 85 0 55 -35 85 -100 85 l-50
0 0 -85z"/>
<path d="M170 325 l0 -105 65 0 c52 0 69 4 85 20 24 24 25 38 4 69 -12 17 -13
26 -5 34 15 15 14 60 -1 75 -7 7 -40 12 -80 12 l-68 0 0 -105z"/>
<path d="M385 365 c-18 -17 -25 -35 -25 -63 0 -51 32 -82 84 -82 77 0 116 91
61 145 -16 17 -35 25 -60 25 -25 0 -44 -8 -60 -25z"/>
</g>
</svg>
